<svg xmlns="http://www.w3.org/2000/svg" width="1500" height="150" style="margin: 0 auto;">
    <!-- Now go back to coding!                -->
    <style>
    svg {
        background:#fee;
        margin: 0 auto;
        filter: blur(5px);
    }

    #x1,#x2,#x3{
        transform: scale(0);
        animation-fill-mode: backwards;
        transform-origin: center center;
        animation: grow 10s linear infinite;
        mix-blend-mode: difference;
    }
    #x1 { animation-delay: 0s; }
    #x2 { animation-delay: 2s; }
    #x3 { animation-delay: 5s; }

    @keyframes grow {
        0%{ transform: scale(0); }
        75%{ transform: scale(5); }
        100%{ transform: scale(20); }

        0%, 75% { opacity: 1; }
        100% { opacity: 0; }
    }

    </style>
    <g fill="#fff" id="x1">
        <circle r="55" cx="10%" cy="50%" />
        <circle r="55" cx="20%" cy="50%" />
        <circle r="55" cx="30%" cy="50%" />
        <circle r="55" cx="40%" cy="50%" />
        <circle r="55" cx="50%" cy="50%" />
        <circle r="55" cx="60%" cy="50%" />
        <circle r="55" cx="70%" cy="50%" />
        <circle r="55" cx="80%" cy="50%" />
        <circle r="55" cx="90%" cy="50%" />
    </g>
    <g fill="#fee" id="x2">
        <circle r="55" cx="10%" cy="50%" />
        <circle r="55" cx="20%" cy="50%" />
        <circle r="55" cx="30%" cy="50%" />
        <circle r="55" cx="40%" cy="50%" />
        <circle r="55" cx="50%" cy="50%" />
        <circle r="55" cx="60%" cy="50%" />
        <circle r="55" cx="70%" cy="50%" />
        <circle r="55" cx="80%" cy="50%" />
        <circle r="55" cx="90%" cy="50%" />
    </g>
    <g fill="#eef" id="x3">
        <circle r="55" cx="10%" cy="50%" />
        <circle r="55" cx="20%" cy="50%" />
        <circle r="55" cx="30%" cy="50%" />
        <circle r="55" cx="40%" cy="50%" />
        <circle r="55" cx="50%" cy="50%" />
        <circle r="55" cx="60%" cy="50%" />
        <circle r="55" cx="70%" cy="50%" />
        <circle r="55" cx="80%" cy="50%" />
        <circle r="55" cx="90%" cy="50%" />
    </g>


</svg> 