<svg xmlns="http://www.w3.org/2000/svg" width="1500" height="150" style="margin: 0 auto;">
    <!-- Now go back to coding!                -->
    <style>
    svg {
        background:#fee;
        margin: 0 auto;
        filter: blur(5px);
    }

    #x1,#x2,#x3{ transform-origin: center center;}
    #x1 { animation: grow 5s linear infinite; }
    #x2 { animation: grow 4s linear infinite; }
    #x3 { animation: grow 6s linear infinite; }

    @keyframes grow {
        0%,100%{ transform: scale(.3); }
        50%{ transform: scale(3); }
    }

    </style>
    <g fill="#fff" id="x1">
        <circle r="55" cx="10%" cy="50%" />
        <circle r="55" cx="20%" cy="50%" />
        <circle r="55" cx="30%" cy="50%" />
        <circle r="55" cx="40%" cy="50%" />
        <circle r="55" cx="50%" cy="50%" />
        <circle r="55" cx="60%" cy="50%" />
        <circle r="55" cx="70%" cy="50%" />
        <circle r="55" cx="80%" cy="50%" />
        <circle r="55" cx="90%" cy="50%" />
    </g>
    <g fill="#fee" id="x2">
        <circle r="55" cx="10%" cy="50%" />
        <circle r="55" cx="20%" cy="50%" />
        <circle r="55" cx="30%" cy="50%" />
        <circle r="55" cx="40%" cy="50%" />
        <circle r="55" cx="50%" cy="50%" />
        <circle r="55" cx="60%" cy="50%" />
        <circle r="55" cx="70%" cy="50%" />
        <circle r="55" cx="80%" cy="50%" />
        <circle r="55" cx="90%" cy="50%" />
    </g>
    <g fill="#fff" id="x3">
        <circle r="55" cx="10%" cy="50%" />
        <circle r="55" cx="20%" cy="50%" />
        <circle r="55" cx="30%" cy="50%" />
        <circle r="55" cx="40%" cy="50%" />
        <circle r="55" cx="50%" cy="50%" />
        <circle r="55" cx="60%" cy="50%" />
        <circle r="55" cx="70%" cy="50%" />
        <circle r="55" cx="80%" cy="50%" />
        <circle r="55" cx="90%" cy="50%" />
    </g>


</svg> 